<svg width="125" height="125" viewBox="0 0 125 125" fill="transparent" xmlns="http://www.w3.org/2000/svg">
<g style="mix-blend-mode:soft-light">
<path d="M72.461 83.1699C72.4047 85.0876 72.9192 86.9788 73.9394 88.6046C74.9597 90.2303 76.4399 91.5175 78.1928 92.3033C79.9457 93.089 81.8925 93.3381 83.7871 93.019C85.6817 92.6999 87.4389 91.827 88.8365 90.5106C90.2341 89.1942 91.2092 87.4934 91.6386 85.6235C92.068 83.7536 91.9323 81.7985 91.2488 80.0055C90.5652 78.2125 89.3645 76.6621 87.7985 75.5505C86.2324 74.4388 84.3714 73.8158 82.4508 73.7603C79.8767 73.6867 77.3786 74.6364 75.5055 76.4007C73.6323 78.1651 72.5373 80.5998 72.461 83.1699Z" fill="white"/>
<path d="M61.6172 61.701C58.7467 64.3901 56.4391 67.6212 54.828 71.2071C53.2169 74.793 52.3344 78.6625 52.2314 82.5914C52.2099 83.3365 52.3355 84.0785 52.6011 84.7752C52.8667 85.4718 53.2672 86.1093 53.7796 86.6515C54.2919 87.1936 54.9062 87.6296 55.5874 87.9347C56.2685 88.2398 57.0032 88.408 57.7494 88.4296C58.4956 88.4512 59.2387 88.3258 59.9364 88.0607C60.634 87.7955 61.2725 87.3957 61.8154 86.8842C62.3583 86.3726 62.795 85.7593 63.1005 85.0792C63.406 84.3991 63.5743 83.6656 63.5959 82.9205C63.6665 80.4837 64.2173 78.0847 65.2166 75.8606C66.216 73.6364 67.6444 71.6306 69.4204 69.9579C71.1963 68.2851 73.2849 66.978 75.5669 66.1114C77.8489 65.2448 80.2795 64.8355 82.72 64.9071C84.2095 64.9232 85.6457 64.3549 86.7198 63.3245C87.7938 62.294 88.4199 60.8838 88.4632 59.3971C88.5065 57.9105 87.9637 56.4662 86.9515 55.3749C85.9393 54.2837 84.5385 53.6327 83.0506 53.5621C79.1163 53.4357 75.1961 54.09 71.517 55.487C67.8378 56.8841 64.4729 58.9962 61.6172 61.701Z" fill="white"/>
<path d="M48.7625 48.0968C44.0986 52.4659 40.349 57.7152 37.7306 63.5411C35.1122 69.367 33.6771 75.6536 33.5083 82.0371C33.4642 83.5418 34.0205 85.0025 35.0549 86.0977C36.0893 87.193 37.5171 87.8331 39.0241 87.8773C40.5311 87.9215 41.9939 87.3662 43.0907 86.3334C44.1876 85.3007 44.8286 83.8752 44.8727 82.3705C45.1612 72.4941 49.3669 63.1369 56.5648 56.3571C63.7626 49.5773 73.3631 45.9301 83.2546 46.2176C84.0008 46.2392 84.7439 46.1139 85.4416 45.8487C86.1392 45.5836 86.7777 45.1838 87.3206 44.6722C87.8635 44.1607 88.3002 43.5473 88.6057 42.8672C88.9112 42.1872 89.0795 41.4536 89.1011 40.7086C89.1227 39.9635 88.9971 39.2215 88.7314 38.5249C88.4658 37.8282 88.0654 37.1907 87.553 36.6485C87.0406 36.1064 86.4263 35.6704 85.7451 35.3653C85.064 35.0602 84.3293 34.892 83.5831 34.8704C77.1913 34.6663 70.8225 35.7301 64.8455 38.0005C58.8684 40.2708 53.4019 43.7024 48.7625 48.0968Z" fill="white"/>
<path d="M84.1453 16.1332C75.2921 15.8745 66.4747 17.3596 58.1967 20.5038C49.9187 23.6479 42.3422 28.3894 35.8998 34.4576C29.4575 40.5258 24.2755 47.8018 20.6498 55.8701C17.0242 63.9383 15.0258 72.6408 14.7689 81.4806C14.747 82.2257 14.8723 82.9678 15.1377 83.6645C15.4031 84.3612 15.8033 84.9989 16.3155 85.5412C17.3499 86.6365 18.7776 87.2766 20.2846 87.3208C21.7917 87.365 23.2545 86.8097 24.3513 85.7769C25.4481 84.7442 26.0891 83.3187 26.1333 81.8139C26.3459 74.4643 28.0067 67.2287 31.0207 60.5203C34.0347 53.8119 38.3429 47.7623 43.6993 42.7171C49.0556 37.6718 55.355 33.7298 62.2378 31.1162C69.1205 28.5025 76.4516 27.2685 83.8123 27.4846C85.3044 27.5038 86.7442 26.9367 87.8213 25.9057C88.8984 24.8746 89.5265 23.4622 89.5701 21.9729C89.6138 20.4836 89.0696 19.0368 88.0548 17.9444C87.04 16.852 85.6359 16.2015 84.1453 16.1332Z" fill="white"/>
</g>
</svg>
