<?xml version="1.0" encoding="utf-8"?><svg viewBox="0 0 125 125" xmlns="http://www.w3.org/2000/svg" xmlns:xlink="http://www.w3.org/1999/xlink"><style>:root>svg{display:none}:root>svg:target{display:block}</style><svg viewBox="0 0 125 125" id="wave" xmlns="http://www.w3.org/2000/svg"><path d="M72.461 83.17a9.69 9.69 0 001.478 5.435 9.711 9.711 0 004.254 3.698 9.728 9.728 0 0010.644-1.792 9.694 9.694 0 002.412-10.505 9.702 9.702 0 00-3.45-4.456 9.724 9.724 0 00-12.294.85 9.694 9.694 0 00-3.044 6.77zM61.617 61.701a29.676 29.676 0 00-9.386 20.89 5.671 5.671 0 003.356 5.344 5.692 5.692 0 007.513-2.856c.306-.68.474-1.413.496-2.158a18.536 18.536 0 015.824-12.963 18.59 18.59 0 0113.3-5.05 5.689 5.689 0 004-1.584 5.672 5.672 0 00.231-7.95 5.689 5.689 0 00-3.9-1.812 29.796 29.796 0 00-11.534 1.925 29.758 29.758 0 00-9.9 6.214z"/><path d="M48.763 48.097A48.286 48.286 0 0037.73 63.54a48.227 48.227 0 00-4.223 18.496 5.672 5.672 0 001.547 4.06 5.689 5.689 0 008.036.236 5.671 5.671 0 001.782-3.962 37.23 37.23 0 0111.692-26.014 37.344 37.344 0 0126.69-10.14 5.692 5.692 0 004.066-1.545 5.675 5.675 0 001.41-6.147 5.675 5.675 0 00-2.986-3.16 5.692 5.692 0 00-2.162-.495A48.417 48.417 0 0064.846 38a48.355 48.355 0 00-16.084 10.097z"/><path d="M84.145 16.133a67.526 67.526 0 00-25.948 4.37A67.445 67.445 0 0035.9 34.459 67.33 67.33 0 0020.65 55.87a67.247 67.247 0 00-5.881 25.61 5.667 5.667 0 001.546 4.061 5.689 5.689 0 008.036.236 5.672 5.672 0 001.782-3.963 55.9 55.9 0 014.888-21.294 55.966 55.966 0 0112.678-17.803 56.063 56.063 0 0118.539-11.6 56.132 56.132 0 0121.574-3.632 5.692 5.692 0 004.01-1.58 5.674 5.674 0 00.233-7.96 5.692 5.692 0 00-3.91-1.812z"/></svg></svg>